<svg 
    width="16" 
    height="16" 
    viewBox="0 0 16 16" 
    version="1.1" 
    xmlns="http://www.w3.org/2000/svg" 
    xmlns:xlink="http://www.w3.org/1999/xlink">
    <title>Group 2</title>
    <g id="Page-1" stroke="none" stroke-width="1" fill="none" fill-rule="evenodd">
        <g id="Artboard" transform="translate(-674.000000, -180.000000)">
            <g id="Group-2" transform="translate(674.000000, 180.000000)">
                <path d="M8.00001659,0 C12.4182737,0 16,3.58175907 16,8.00001631 C16,12.4182736 12.4182737,16 8.00001659,16 C3.5817595,16 0,12.4182736 0,8.00001631 L0,8.00001631 C-0.0125387043,3.59428746 3.54878549,0.0126045137 7.95447069,0 C7.96965266,0 7.98483462,0 8.00001659,0 Z" id="Path" fill="#F64B3C" fill-rule="nonzero"></path>
                <polygon id="Path" fill="#FFFFFF" points="10.5454545 4 12 5.45454545 9.45423602 7.99991021 12 10.5454545 10.5454545 12 7.99991021 9.45423602 5.45454545 12 4 10.5454545 6.54455589 7.99991021 4 5.45454545 5.45454545 4 7.99991021 6.54455589"></polygon>
            </g>
        </g>
    </g>
</svg>